# xmcd
#
# Track frame offsets: 
#        150
#        12080
#        26502
#        36025
#        46277
#        58350
#        67885
#        80892
#        92105
#        104045
#        115577
#        130362
#        142112
#        153425
#        173330
#        183317
#        193580
#        201462
#        212577
#        221777
#        231612
#        244465
#        253780
#        265222
#
# Disc length: 3684 seconds
#
# Revision: 0
# Processed by: cddbd v1.5.2PL0 Copyright (c) Steve Scherf et al.
# Submitted via: ExactAudioCopy v0.95b4
#
DISCID=6e0e6218
DTITLE=Sons Of The Pioneers - Sing Cowboy Classics
DYEAR=1966
DGENRE=Western
TTITLE0=Cimarron (1960)
TTITLE1=Hills Of Old Wyoming (1960)
TTITLE2=Whoopie-Ti-Yi-Yo (1959)
TTITLE3=Blue Shadows On The Trail (1959)
TTITLE4=Pecos Bill (1960)
TTITLE5=Along The Navajo Trail (1960)
TTITLE6=Blue Prairie (1959)
TTITLE7=Twilight On The Trail (1959)
TTITLE8=The Cattle Call (1960)
TTITLE9=Tumbleweed Trail (1961)
TTITLE10=Dusty Skies (1962)
TTITLE11=At The Rainbow's End (1966)
TTITLE12=That Lucky Old Sun (1966)
TTITLE13=You Are My Eyes (1966)
TTITLE14=Chant Of The Wanderer (1962)
TTITLE15=Chant Of The Plains (1960)
TTITLE16=Way Out There (1959)
TTITLE17=One More Ride (1966)
TTITLE18=Ridin' Home (1959)
TTITLE19=The Boss Is Hangin' Out A Rainbow (1966)
TTITLE20=Following The Sun All Day (1966)
TTITLE21=Yippee-Yi-Yippie-Yo (1960)
TTITLE22=Buffalo (1964)
TTITLE23=Tumbling Tumbleweeds (1959)
EXTD=Sing Cowboy Classics\n© 2007 Texas Moon Records/Sony BMG Music En
EXTD=tertainment\n\nCompilation Originally Released 2007\n\nCollectors
EXTD=' Choice Notes\nTitle: Sing Cowboy Classics\nArtist: Sons Of The 
EXTD=Pioneers \n\nTwo dozen songs take us from 1959--66, when the grou
EXTD=p's legendary harmonies and arrangements were just as perfect as 
EXTD=ever. They tackle the classics 'Tumbling Tumbleweeds - That Lucky 
EXTD=Old Sun - Cimarron - Blue Shadows on the Trail - Twilight on the Tra
EXTD=il - Pecos Bill - Along the Navajo Trail - The Cattle Call - Hills of
EXTD=Old Wyoming', and more! 
EXTT0=
EXTT1=
EXTT2=
EXTT3=
EXTT4=
EXTT5=
EXTT6=
EXTT7=
EXTT8=
EXTT9=
EXTT10=
EXTT11=
EXTT12=
EXTT13=
EXTT14=
EXTT15=
EXTT16=
EXTT17=
EXTT18=
EXTT19=
EXTT20=
EXTT21=
EXTT22=
EXTT23=
PLAYORDER=
